<svg xmlns="http://www.w3.org/2000/svg" xmlns:xlink="http://www.w3.org/1999/xlink" id="body_1" preserveAspectRatio="xMinYMin meet" viewBox="0 0 793 1121"><defs><clipPath id="1"><path id="" clip-rule="evenodd" transform="matrix(1 0 0 1 0 0)" d="M0 841L0 -0.9000244L0 -0.9000244L595.3 -0.9000244L595.3 -0.9000244L595.3 841L595.3 841L0 841z" /></clipPath><clipPath id="2"><path id="" clip-rule="evenodd" transform="matrix(1 0 0 1 0 0)" d="M0 -0.9000244L595.3 -0.9000244L595.3 -0.9000244L595.3 841L595.3 841L0 841z" /></clipPath></defs><g transform="matrix(1.333333 0 0 1.333333 0 0)"><g clip-path="url(#1)"><g clip-path="url(#2)"><g transform="matrix(0.2451219 0 0 0.2421687 286.4 778.9)"><g transform="matrix(1 0 0 1 0 0)"><image x="0" y="0" xlink:href="img_01.png" width="41" height="83" /></g></g><path id="2" transform="matrix(1 0 0 -1 0 841)" d="M90 769.9L96.65 769.9L96.65 769.9L96.65 754.3L96.65 754.3L90 754.3z" stroke="none" fill="#FFFF00" fill-rule="evenodd" /><path id="3" transform="matrix(1 0 0 -1 0 841)" d="M96.65 769.9L108.65 769.9L108.65 769.9L108.65 754.3L108.65 754.3L96.65 754.3z" stroke="none" fill="#FFFF00" fill-rule="evenodd" /><path id="6" transform="matrix(1 0 0 -1 0 841)" d="M108.65 769.9L204.65 769.9L204.65 769.9L204.65 754.3L204.65 754.3L108.65 754.3z" stroke="none" fill="#FFFF00" fill-rule="evenodd" /><path id="78" transform="matrix(1 0 0 -1 0 841)" d="M90 741.1L448.4 741.1" stroke="#0000FF" stroke-width="0.6" fill="none" /><path id="79" transform="matrix(1 0 0 -1 0 841)" d="M90 723.1L123.75 723.1L123.75 723.1L123.75 707.5L123.75 707.5L90 707.5z" stroke="none" fill="#FFFF00" fill-rule="evenodd" /><path id="80" transform="matrix(1 0 0 -1 0 841)" d="M123.75 723.1L231.75 723.1L231.75 723.1L231.75 707.5L231.75 707.5L123.75 707.5z" stroke="none" fill="#FFFF00" fill-rule="evenodd" /><path id="159" transform="matrix(1 0 0 -1 0 841)" d="M90 694.3L433.65 694.3" stroke="#0000FF" stroke-width="0.6" fill="none" /><path id="160" transform="matrix(1 0 0 -1 0 841)" d="M90 676.3L499.95 676.3L499.95 676.3L499.95 660.7L499.95 660.7L90 660.7z" stroke="none" fill="#FFFF00" fill-rule="evenodd" /><path id="195" transform="matrix(1 0 0 -1 0 841)" d="M90 660.7L129 660.7L129 660.7L129 645.1L129 645.1L90 645.1z" stroke="none" fill="#FFFF00" fill-rule="evenodd" /><path id="196" transform="matrix(1 0 0 -1 0 841)" d="M129 660.7L162.75 660.7L162.75 660.7L162.75 645.1L162.75 645.1L129 645.1z" stroke="none" fill="#FFFF00" fill-rule="evenodd" /><path id="197" transform="matrix(1 0 0 -1 0 841)" d="M162.75 660.7L222.75 660.7L222.75 660.7L222.75 645.1L222.75 645.1L162.75 645.1z" stroke="none" fill="#FFFF00" fill-rule="evenodd" /><path id="312" transform="matrix(1 0 0 -1 0 841)" d="M331.55 349.9L499.95 349.9L499.95 349.9L499.95 334.3L499.95 334.3L331.55 334.3z" stroke="none" fill="#FFFF00" fill-rule="evenodd" /><path id="353" transform="matrix(1 0 0 -1 0 841)" d="M90 334.3L138 334.3L138 334.3L138 318.7L138 318.7L90 318.7z" stroke="none" fill="#FFFF00" fill-rule="evenodd" /><g transform="matrix(0.5355294 0 0 0.535514 92.76 261.54)"><g transform="matrix(1 0 0 1 0 0)"><image x="0" y="0" xlink:href="img_02.png" width="765" height="428" /></g></g><g transform="matrix(0.4401719 0 0 0.4398316 92.76 528.3)"><g transform="matrix(1 0 0 1 0 0)"><image x="0" y="0" xlink:href="img_03.png" width="931" height="475" /></g></g></g></g></g></svg>