<svg xmlns="http://www.w3.org/2000/svg" xmlns:xlink="http://www.w3.org/1999/xlink" id="body_1" preserveAspectRatio="xMinYMin meet" viewBox="0 0 793 1121"><defs><clipPath id="1"><path id="" clip-rule="evenodd" transform="matrix(1 0 0 1 0 0)" d="M0 841L0 -0.9000244L0 -0.9000244L595.3 -0.9000244L595.3 -0.9000244L595.3 841L595.3 841L0 841z" /></clipPath><clipPath id="2"><path id="" clip-rule="evenodd" transform="matrix(1 0 0 1 0 0)" d="M0 -0.9000244L595.3 -0.9000244L595.3 -0.9000244L595.3 841L595.3 841L0 841z" /></clipPath></defs><g transform="matrix(1.333333 0 0 1.333333 0 0)"><g clip-path="url(#1)"><g clip-path="url(#2)"><g transform="matrix(0.2451219 0 0 0.2421687 286.4 778.9)"><g transform="matrix(1 0 0 1 0 0)"><image x="0" y="0" xlink:href="img_01.png" width="41" height="83" /></g></g><path id="122" transform="matrix(1 0 0 -1 0 841)" d="M90 694.3L460.05 694.3" stroke="#0000FF" stroke-width="0.6" fill="none" /><path id="171" transform="matrix(1 0 0 -1 0 841)" d="M186.05 660.7L282.15 660.7L282.15 660.7L282.15 645.1L282.15 645.1L186.05 645.1z" stroke="none" fill="#FFFF00" fill-rule="evenodd" /><path id="667" transform="matrix(1 0 0 -1 0 841)" d="M273.45 208.3L309.45 208.3L309.45 208.3L309.45 182.3L309.45 182.3L273.45 182.3z" stroke="none" fill="#FFFF00" fill-rule="evenodd" /><path id="668" transform="matrix(1 0 0 -1 0 841)" d="M309.45 208.3L335.75 208.3L335.75 208.3L335.75 182.3L335.75 182.3L309.45 182.3z" stroke="none" fill="#FFFF00" fill-rule="evenodd" /><path id="669" transform="matrix(1 0 0 -1 0 841)" d="M335.75 208.3L367.8 208.3L367.8 208.3L367.8 182.3L367.8 182.3L335.75 182.3z" stroke="none" fill="#FFFF00" fill-rule="evenodd" /><path id="750" transform="matrix(1 0 0 -1 0 841)" d="M240.15 145.9L324.15 145.9L324.15 145.9L324.15 130.3L324.15 130.3L240.15 130.3z" stroke="none" fill="#FFFF00" fill-rule="evenodd" /></g></g></g></svg>