<svg xmlns="http://www.w3.org/2000/svg" xmlns:xlink="http://www.w3.org/1999/xlink" id="body_1" preserveAspectRatio="xMinYMin meet" viewBox="0 0 793 1121"><defs><clipPath id="1"><path id="" clip-rule="evenodd" transform="matrix(1 0 0 1 0 0)" d="M0 841L0 -0.9000244L0 -0.9000244L595.3 -0.9000244L595.3 -0.9000244L595.3 841L595.3 841L0 841z" /></clipPath><clipPath id="2"><path id="" clip-rule="evenodd" transform="matrix(1 0 0 1 0 0)" d="M0 -0.9000244L595.3 -0.9000244L595.3 -0.9000244L595.3 841L595.3 841L0 841z" /></clipPath></defs><g transform="matrix(1.333333 0 0 1.333333 0 0)"><g clip-path="url(#1)"><g clip-path="url(#2)"><g transform="matrix(0.2451219 0 0 0.2421687 286.4 778.9)"><g transform="matrix(1 0 0 1 0 0)"><image x="0" y="0" xlink:href="img_01.png" width="41" height="83" /></g></g><g transform="matrix(0.3272204 0 0 0.3274839 99 272.46)"><g transform="matrix(1 0 0 1 0 0)"><image x="0" y="0" xlink:href="img_02.png" width="1252" height="620" /></g></g><g transform="matrix(0.3435038 0 0 0.3437383 92.76 550.02)"><g transform="matrix(1 0 0 1 0 0)"><image x="0" y="0" xlink:href="img_03.png" width="1193" height="214" /></g></g><path id="113" transform="matrix(1 0 0 -1 0 841)" d="M207.3 645.1L234.3 645.1L234.3 645.1L234.3 629.5L234.3 629.5L207.3 629.5z" stroke="none" fill="#FFFF00" fill-rule="evenodd" /><path id="114" transform="matrix(1 0 0 -1 0 841)" d="M234.3 645.1L254 645.1L254 645.1L254 629.5L254 629.5L234.3 629.5z" stroke="none" fill="#FFFF00" fill-rule="evenodd" /><path id="115" transform="matrix(1 0 0 -1 0 841)" d="M254 645.1L290 645.1L290 645.1L290 629.5L290 629.5L254 629.5z" stroke="none" fill="#FFFF00" fill-rule="evenodd" /></g></g></g></svg>