<svg xmlns="http://www.w3.org/2000/svg" xmlns:xlink="http://www.w3.org/1999/xlink" id="body_1" preserveAspectRatio="xMinYMin meet" viewBox="0 0 793 1121"><defs><clipPath id="1"><path id="" clip-rule="evenodd" transform="matrix(1 0 0 1 0 0)" d="M0 841L0 -0.9000244L0 -0.9000244L595.3 -0.9000244L595.3 -0.9000244L595.3 841L595.3 841L0 841z" /></clipPath><clipPath id="2"><path id="" clip-rule="evenodd" transform="matrix(1 0 0 1 0 0)" d="M0 -0.9000244L595.3 -0.9000244L595.3 -0.9000244L595.3 841L595.3 841L0 841z" /></clipPath></defs><g transform="matrix(1.333333 0 0 1.333333 0 0)"><g clip-path="url(#1)"><g clip-path="url(#2)"><g transform="matrix(0.2451219 0 0 0.2421687 286.4 778.9)"><g transform="matrix(1 0 0 1 0 0)"><image x="0" y="0" xlink:href="img_01.png" width="41" height="83" /></g></g><g transform="matrix(0.3532758 0 0 0.3533742 92.76 114.54)"><g transform="matrix(1 0 0 1 0 0)"><image x="0" y="0" xlink:href="img_02.png" width="1160" height="326" /></g></g><path id="71" transform="matrix(1 0 0 -1 0 841)" d="M366.35 567.1L451.5 567.1L451.5 567.1L451.5 551.5L451.5 551.5L366.35 551.5z" stroke="none" fill="#FFFF00" fill-rule="evenodd" /><path id="104" transform="matrix(1 0 0 -1 0 841)" d="M102.05 551.5L150.3 551.5L150.3 551.5L150.3 535.9L150.3 535.9L102.05 535.9z" stroke="none" fill="#FFFF00" fill-rule="evenodd" /><path id="105" transform="matrix(1 0 0 -1 0 841)" d="M186.45 551.5L270.9 551.5L270.9 551.5L270.9 535.9L270.9 535.9L186.45 535.9z" stroke="none" fill="#FFFF00" fill-rule="evenodd" /><path id="106" transform="matrix(1 0 0 -1 0 841)" d="M403.55 551.5L475.9 551.5L475.9 551.5L475.9 535.9L475.9 535.9L403.55 535.9z" stroke="none" fill="#FFFF00" fill-rule="evenodd" /><path id="141" transform="matrix(1 0 0 -1 0 841)" d="M186.45 535.9L270.9 535.9L270.9 535.9L270.9 520.3L270.9 520.3L186.45 520.3z" stroke="none" fill="#FFFF00" fill-rule="evenodd" /><path id="142" transform="matrix(1 0 0 -1 0 841)" d="M295 535.9L343.25 535.9L343.25 535.9L343.25 520.3L343.25 520.3L295 520.3z" stroke="none" fill="#FFFF00" fill-rule="evenodd" /><path id="177" transform="matrix(1 0 0 -1 0 841)" d="M292.4 520.3L340.4 520.3L340.4 520.3L340.4 504.7L340.4 504.7L292.4 504.7z" stroke="none" fill="#FFFF00" fill-rule="evenodd" /><path id="178" transform="matrix(1 0 0 -1 0 841)" d="M340.4 520.3L350.85 520.3L350.85 520.3L350.85 504.7L350.85 504.7L340.4 504.7z" stroke="none" fill="#FFFF00" fill-rule="evenodd" /><path id="179" transform="matrix(1 0 0 -1 0 841)" d="M350.85 520.3L369.55 520.3L369.55 520.3L369.55 504.7L369.55 504.7L350.85 504.7z" stroke="none" fill="#FFFF00" fill-rule="evenodd" /><path id="180" transform="matrix(1 0 0 -1 0 841)" d="M369.55 520.3L379.95 520.3L379.95 520.3L379.95 504.7L379.95 504.7L369.55 504.7z" stroke="none" fill="#FFFF00" fill-rule="evenodd" /><path id="217" transform="matrix(1 0 0 -1 0 841)" d="M281.3 504.7L292.6 504.7L292.6 504.7L292.6 489.1L292.6 489.1L281.3 489.1z" stroke="none" fill="#FFFF00" fill-rule="evenodd" /><path id="218" transform="matrix(1 0 0 -1 0 841)" d="M292.6 504.7L436.6 504.7L436.6 504.7L436.6 489.1L436.6 489.1L292.6 489.1z" stroke="none" fill="#FFFF00" fill-rule="evenodd" /><path id="219" transform="matrix(1 0 0 -1 0 841)" d="M436.6 504.7L440.65 504.7L440.65 504.7L440.65 489.1L440.65 489.1L436.6 489.1z" stroke="none" fill="#FFFF00" fill-rule="evenodd" /><path id="220" transform="matrix(1 0 0 -1 0 841)" d="M440.65 504.7L464.65 504.7L464.65 504.7L464.65 489.1L464.65 489.1L440.65 489.1z" stroke="none" fill="#FFFF00" fill-rule="evenodd" /><path id="221" transform="matrix(1 0 0 -1 0 841)" d="M464.65 504.7L475.95 504.7L475.95 504.7L475.95 489.1L475.95 489.1L464.65 489.1z" stroke="none" fill="#FFFF00" fill-rule="evenodd" /><path id="292" transform="matrix(1 0 0 -1 0 841)" d="M222.65 473.5L246.75 473.5L246.75 473.5L246.75 457.9L246.75 457.9L222.65 457.9z" stroke="none" fill="#FFFF00" fill-rule="evenodd" /><path id="335" transform="matrix(1 0 0 -1 0 841)" d="M220.45 442.3L439.35 442.3L439.35 442.3L439.35 426.7L439.35 426.7L220.45 426.7z" stroke="none" fill="#FFFF00" fill-rule="evenodd" /><path id="431" transform="matrix(1 0 0 -1 0 841)" d="M342.05 395.5L499.95 395.5L499.95 395.5L499.95 379.9L499.95 379.9L342.05 379.9z" stroke="none" fill="#FFFF00" fill-rule="evenodd" /><path id="464" transform="matrix(1 0 0 -1 0 841)" d="M90 379.9L222.65 379.9L222.65 379.9L222.65 364.3L222.65 364.3L90 364.3z" stroke="none" fill="#FFFF00" fill-rule="evenodd" /><path id="552" transform="matrix(1 0 0 -1 0 841)" d="M487.95 255.1L499.95 255.1L499.95 255.1L499.95 239.5001L499.95 239.5001L487.95 239.5001z" stroke="none" fill="#FFFF00" fill-rule="evenodd" /><path id="587" transform="matrix(1 0 0 -1 0 841)" d="M90 239.5L114 239.5L114 239.5L114 223.9L114 223.9L90 223.9z" stroke="none" fill="#FFFF00" fill-rule="evenodd" /><path id="588" transform="matrix(1 0 0 -1 0 841)" d="M126 239.5L186 239.5L186 239.5L186 223.9L186 223.9L126 223.9z" stroke="none" fill="#FFFF00" fill-rule="evenodd" /><path id="601" transform="matrix(1 0 0 -1 0 841)" d="M171.7 223.9L220.3 223.9L220.3 223.9L220.3 208.3L220.3 208.3L171.7 208.3z" stroke="none" fill="#FFFF00" fill-rule="evenodd" /><path id="602" transform="matrix(1 0 0 -1 0 841)" d="M232.4 223.9L281 223.9L281 223.9L281 208.3L281 208.3L232.4 208.3z" stroke="none" fill="#FFFF00" fill-rule="evenodd" /><path id="603" transform="matrix(1 0 0 -1 0 841)" d="M293.15 223.9L341.75 223.9L341.75 223.9L341.75 208.3L341.75 208.3L293.15 208.3z" stroke="none" fill="#FFFF00" fill-rule="evenodd" /><path id="604" transform="matrix(1 0 0 -1 0 841)" d="M353.85 223.9L438.9 223.9L438.9 223.9L438.9 208.3L438.9 208.3L353.85 208.3z" stroke="none" fill="#FFFF00" fill-rule="evenodd" /><path id="605" transform="matrix(1 0 0 -1 0 841)" d="M438.9 223.9L463.7 223.9L463.7 223.9L463.7 208.3L463.7 208.3L438.9 208.3z" stroke="none" fill="#FFFF00" fill-rule="evenodd" /><path id="606" transform="matrix(1 0 0 -1 0 841)" d="M463.7 223.9L475.85 223.9L475.85 223.9L475.85 208.3L475.85 208.3L463.7 208.3z" stroke="none" fill="#FFFF00" fill-rule="evenodd" /><path id="607" transform="matrix(1 0 0 -1 0 841)" d="M488 223.9L500 223.9L500 223.9L500 208.3L500 208.3L488 208.3z" stroke="none" fill="#FFFF00" fill-rule="evenodd" /><path id="643" transform="matrix(1 0 0 -1 0 841)" d="M90 208.3L150 208.3L150 208.3L150 192.7001L150 192.7001L90 192.7001z" stroke="none" fill="#FFFF00" fill-rule="evenodd" /><path id="644" transform="matrix(1 0 0 -1 0 841)" d="M161.3 208.3L209.3 208.3L209.3 208.3L209.3 192.7001L209.3 192.7001L161.3 192.7001z" stroke="none" fill="#FFFF00" fill-rule="evenodd" /><path id="645" transform="matrix(1 0 0 -1 0 841)" d="M209.3 208.3L220.65 208.3L220.65 208.3L220.65 192.7001L220.65 192.7001L209.3 192.7001z" stroke="none" fill="#FFFF00" fill-rule="evenodd" /><path id="646" transform="matrix(1 0 0 -1 0 841)" d="M220.65 208.3L249.3 208.3L249.3 208.3L249.3 192.7001L249.3 192.7001L220.65 192.7001z" stroke="none" fill="#FFFF00" fill-rule="evenodd" /><path id="647" transform="matrix(1 0 0 -1 0 841)" d="M249.3 208.3L260.65 208.3L260.65 208.3L260.65 192.7001L260.65 192.7001L249.3 192.7001z" stroke="none" fill="#FFFF00" fill-rule="evenodd" /></g></g></g></svg>