<svg xmlns="http://www.w3.org/2000/svg" xmlns:xlink="http://www.w3.org/1999/xlink" id="body_1" preserveAspectRatio="xMinYMin meet" viewBox="0 0 793 1121"><defs><clipPath id="1"><path id="" clip-rule="evenodd" transform="matrix(1 0 0 1 0 0)" d="M0 841L0 -0.9000244L0 -0.9000244L595.3 -0.9000244L595.3 -0.9000244L595.3 841L595.3 841L0 841z" /></clipPath><clipPath id="2"><path id="" clip-rule="evenodd" transform="matrix(1 0 0 1 0 0)" d="M0 -0.9000244L595.3 -0.9000244L595.3 -0.9000244L595.3 841L595.3 841L0 841z" /></clipPath></defs><g transform="matrix(1.333333 0 0 1.333333 0 0)"><g clip-path="url(#1)"><g clip-path="url(#2)"><g transform="matrix(0.2451219 0 0 0.2421687 289.95 778.9)"><g transform="matrix(1 0 0 1 0 0)"><image x="0" y="0" xlink:href="img_01.png" width="41" height="83" /></g></g><path id="115" transform="matrix(1 0 0 -1 0 841)" d="M90 582.7L102.7 582.7L102.7 582.7L102.7 563.2L102.7 563.2L90 563.2z" stroke="none" fill="#FFFF00" fill-rule="evenodd" /><path id="116" transform="matrix(1 0 0 -1 0 841)" d="M102.7 582.7L500 582.7L500 582.7L500 563.2L500 563.2L102.7 563.2z" stroke="none" fill="#FFFF00" fill-rule="evenodd" /><path id="152" transform="matrix(1 0 0 -1 0 841)" d="M90 559.3L318 559.3L318 559.3L318 539.8L318 539.8L90 539.8z" stroke="none" fill="#FFFF00" fill-rule="evenodd" /></g></g></g></svg>