<svg xmlns="http://www.w3.org/2000/svg" xmlns:xlink="http://www.w3.org/1999/xlink" id="body_1" preserveAspectRatio="xMinYMin meet" viewBox="0 0 793 1121"><defs><clipPath id="1"><path id="" clip-rule="evenodd" transform="matrix(1 0 0 1 0 0)" d="M0 841L0 -0.9000244L0 -0.9000244L595.3 -0.9000244L595.3 -0.9000244L595.3 841L595.3 841L0 841z" /></clipPath><clipPath id="2"><path id="" clip-rule="evenodd" transform="matrix(1 0 0 1 0 0)" d="M0 -0.9000244L595.3 -0.9000244L595.3 -0.9000244L595.3 841L595.3 841L0 841z" /></clipPath></defs><g transform="matrix(1.333333 0 0 1.333333 0 0)"><g clip-path="url(#1)"><g clip-path="url(#2)"><g transform="matrix(0.2451219 0 0 0.2421687 286.4 778.9)"><g transform="matrix(1 0 0 1 0 0)"><image x="0" y="0" xlink:href="img_01.png" width="41" height="83" /></g></g><path id="2" transform="matrix(1 0 0 -1 0 841)" d="M90 769.9L499.95 769.9L499.95 769.9L499.95 750.4L499.95 750.4L90 750.4z" stroke="none" fill="#FFFF00" fill-rule="evenodd" /><path id="37" transform="matrix(1 0 0 -1 0 841)" d="M90 746.5L114 746.5L114 746.5L114 727L114 727L90 727z" stroke="none" fill="#FFFF00" fill-rule="evenodd" /><path id="494" transform="matrix(1 0 0 -1 0 841)" d="M223.9 504.7L384.05 504.7L384.05 504.7L384.05 476.1L384.05 476.1L223.9 476.1z" stroke="none" fill="#FFFF00" fill-rule="evenodd" /><path id="614" transform="matrix(1 0 0 -1 0 841)" d="M90 413.5L460.05 413.5" stroke="#0000FF" stroke-width="0.6" fill="none" /><path id="735" transform="matrix(1 0 0 -1 0 841)" d="M90 366.7L460.05 366.7" stroke="#0000FF" stroke-width="0.6" fill="none" /></g></g></g></svg>