<svg xmlns="http://www.w3.org/2000/svg" xmlns:xlink="http://www.w3.org/1999/xlink" id="body_1" preserveAspectRatio="xMinYMin meet" viewBox="0 0 793 1121"><defs><clipPath id="1"><path id="" clip-rule="evenodd" transform="matrix(1 0 0 1 0 0)" d="M0 841L0 -0.9000244L0 -0.9000244L595.3 -0.9000244L595.3 -0.9000244L595.3 841L595.3 841L0 841z" /></clipPath><clipPath id="2"><path id="" clip-rule="evenodd" transform="matrix(1 0 0 1 0 0)" d="M0 -0.9000244L595.3 -0.9000244L595.3 -0.9000244L595.3 841L595.3 841L0 841z" /></clipPath></defs><g transform="matrix(1.333333 0 0 1.333333 0 0)"><g clip-path="url(#1)"><g clip-path="url(#2)"><g transform="matrix(0.2451219 0 0 0.2421687 286.4 778.9)"><g transform="matrix(1 0 0 1 0 0)"><image x="0" y="0" xlink:href="img_01.png" width="41" height="83" /></g></g><g transform="matrix(0.3457215 0 0 0.3457682 92.76 206.9399)"><g transform="matrix(1 0 0 1 0 0)"><image x="0" y="0" xlink:href="img_02.png" width="1185" height="742" /></g></g><path id="103" transform="matrix(1 0 0 -1 0 841)" d="M90 678.7L460.05 678.7" stroke="#0000FF" stroke-width="0.6" fill="none" /><path id="148" transform="matrix(1 0 0 -1 0 841)" d="M97.8 593.7L98.55 594.45L98.55 583.95L97.8 584.7L135.3 584.7L134.55 583.95L134.55 594.45L135.3 593.7L97.8 593.7M136.05 595.2L136.05 583.2L97.05 583.2L97.05 595.2L136.05 595.2z" stroke="none" fill="#FF0000" fill-rule="nonzero" /><path id="149" transform="matrix(1 0 0 -1 0 841)" d="M97.8 579.45L98.55 580.2L98.55 568.95L97.8 569.7L135.3 569.7L134.55 568.95L134.55 580.2L135.3 579.45L97.8 579.45M136.05 580.95L136.05 568.2L97.05 568.2L97.05 580.95L136.05 580.95z" stroke="none" fill="#FF0000" fill-rule="nonzero" /></g></g></g></svg>