<svg xmlns="http://www.w3.org/2000/svg" xmlns:xlink="http://www.w3.org/1999/xlink" id="body_1" preserveAspectRatio="xMinYMin meet" viewBox="0 0 793 1121"><defs><clipPath id="1"><path id="" clip-rule="evenodd" transform="matrix(1 0 0 1 0 0)" d="M0 841L0 -0.9000244L0 -0.9000244L595.3 -0.9000244L595.3 -0.9000244L595.3 841L595.3 841L0 841z" /></clipPath><clipPath id="2"><path id="" clip-rule="evenodd" transform="matrix(1 0 0 1 0 0)" d="M0 -0.9000244L595.3 -0.9000244L595.3 -0.9000244L595.3 841L595.3 841L0 841z" /></clipPath></defs><g transform="matrix(1.333333 0 0 1.333333 0 0)"><g clip-path="url(#1)"><g clip-path="url(#2)"><g transform="matrix(0.2451219 0 0 0.2421687 286.4 778.9)"><g transform="matrix(1 0 0 1 0 0)"><image x="0" y="0" xlink:href="img_01.png" width="41" height="83" /></g></g><g transform="matrix(0.4380321 0 0 0.4381743 92.88 268.86)"><g transform="matrix(1 0 0 1 0 0)"><image x="0" y="0" xlink:href="img_02.png" width="935" height="482" /></g></g><path id="60" transform="matrix(1 0 0 -1 0 841)" d="M277.3 593.05L287.9 593.05L287.9 593.05L287.9 577.45L287.9 577.45L277.3 577.45z" stroke="none" fill="#FFFF00" fill-rule="evenodd" /><path id="61" transform="matrix(1 0 0 -1 0 841)" d="M287.9 593.05L479.9 593.05L479.9 593.05L479.9 577.45L479.9 577.45L287.9 577.45z" stroke="none" fill="#FFFF00" fill-rule="evenodd" /><path id="62" transform="matrix(1 0 0 -1 0 841)" d="M479.9 593.05L494 593.05L494 593.05L494 577.45L494 577.45L479.9 577.45z" stroke="none" fill="#FFFF00" fill-rule="evenodd" /><path id="63" transform="matrix(1 0 0 -1 0 841)" d="M494 593.05L500 593.05L500 593.05L500 577.45L500 577.45L494 577.45z" stroke="none" fill="#FFFF00" fill-rule="evenodd" /><path id="106" transform="matrix(1 0 0 -1 0 841)" d="M195.65 343.45L281.65 343.45L281.65 343.45L281.65 327.85L281.65 327.85L195.65 327.85z" stroke="none" fill="#FFFF00" fill-rule="evenodd" /><path id="107" transform="matrix(1 0 0 -1 0 841)" d="M281.65 343.45L287.65 343.45L287.65 343.45L287.65 327.85L287.65 327.85L281.65 327.85z" stroke="none" fill="#FFFF00" fill-rule="evenodd" /><path id="108" transform="matrix(1 0 0 -1 0 841)" d="M287.65 343.45L301 343.45L301 343.45L301 327.85L301 327.85L287.65 327.85z" stroke="none" fill="#FFFF00" fill-rule="evenodd" /><path id="109" transform="matrix(1 0 0 -1 0 841)" d="M301 343.45L307 343.45L307 343.45L307 327.85L307 327.85L301 327.85z" stroke="none" fill="#FFFF00" fill-rule="evenodd" /><path id="110" transform="matrix(1 0 0 -1 0 841)" d="M307 343.45L320.65 343.45L320.65 343.45L320.65 327.85L320.65 327.85L307 327.85z" stroke="none" fill="#FFFF00" fill-rule="evenodd" /><g transform="matrix(0.5227041 0 0 0.5225616 92.76 125.82)"><g transform="matrix(1 0 0 1 0 0)"><image x="0" y="0" xlink:href="img_03.png" width="784" height="203" /></g></g><g transform="matrix(0.4192016 0 0 0.4193464 92.88 518.46)"><g transform="matrix(1 0 0 1 0 0)"><image x="0" y="0" xlink:href="img_04.png" width="977" height="459" /></g></g></g></g></g></svg>