<svg xmlns="http://www.w3.org/2000/svg" xmlns:xlink="http://www.w3.org/1999/xlink" id="body_1" preserveAspectRatio="xMinYMin meet" viewBox="0 0 793 1121"><defs><clipPath id="1"><path id="" clip-rule="evenodd" transform="matrix(1 0 0 1 0 0)" d="M0 841L0 -0.9000244L0 -0.9000244L595.3 -0.9000244L595.3 -0.9000244L595.3 841L595.3 841L0 841z" /></clipPath><clipPath id="2"><path id="" clip-rule="evenodd" transform="matrix(1 0 0 1 0 0)" d="M0 -0.9000244L595.3 -0.9000244L595.3 -0.9000244L595.3 841L595.3 841L0 841z" /></clipPath></defs><g transform="matrix(1.333333 0 0 1.333333 0 0)"><g clip-path="url(#1)"><g clip-path="url(#2)"><g transform="matrix(0.2451219 0 0 0.2421687 289.95 778.9)"><g transform="matrix(1 0 0 1 0 0)"><image x="0" y="0" xlink:href="img_01.png" width="41" height="83" /></g></g><path id="65" transform="matrix(1 0 0 -1 0 841)" d="M114 756.7L496.9 756.7" stroke="#0000FF" stroke-width="0.6" fill="none" /><path id="109" transform="matrix(1 0 0 -1 0 841)" d="M114 741.1L386.6 741.1" stroke="#0000FF" stroke-width="0.6" fill="none" /><path id="253" transform="matrix(1 0 0 -1 0 841)" d="M90 647.5L496.4 647.5" stroke="#0000FF" stroke-width="0.6" fill="none" /><path id="296" transform="matrix(1 0 0 -1 0 841)" d="M90 631.9L351.35 631.9" stroke="#0000FF" stroke-width="0.6" fill="none" /><path id="391" transform="matrix(1 0 0 -1 0 841)" d="M90 600.7L498.35 600.7" stroke="#0000FF" stroke-width="0.6" fill="none" /><path id="433" transform="matrix(1 0 0 -1 0 841)" d="M90 585.1L345.35 585.1" stroke="#0000FF" stroke-width="0.6" fill="none" /><path id="516" transform="matrix(1 0 0 -1 0 841)" d="M90 553.9L498.35 553.9" stroke="#0000FF" stroke-width="0.6" fill="none" /><path id="558" transform="matrix(1 0 0 -1 0 841)" d="M90 538.3L345.35 538.3" stroke="#0000FF" stroke-width="0.6" fill="none" /><path id="642" transform="matrix(1 0 0 -1 0 841)" d="M90 507.1L495.7 507.1" stroke="#0000FF" stroke-width="0.6" fill="none" /><path id="685" transform="matrix(1 0 0 -1 0 841)" d="M90 491.5L351.35 491.5" stroke="#0000FF" stroke-width="0.6" fill="none" /><path id="769" transform="matrix(1 0 0 -1 0 841)" d="M90 460.3L495.7 460.3" stroke="#0000FF" stroke-width="0.6" fill="none" /><path id="812" transform="matrix(1 0 0 -1 0 841)" d="M90 444.7L351.35 444.7" stroke="#0000FF" stroke-width="0.6" fill="none" /><path id="1197" transform="matrix(1 0 0 -1 0 841)" d="M90 195.1L459.8 195.1" stroke="#0000FF" stroke-width="0.6" fill="none" /></g></g></g></svg>