<svg xmlns="http://www.w3.org/2000/svg" xmlns:xlink="http://www.w3.org/1999/xlink" id="body_1" preserveAspectRatio="xMinYMin meet" viewBox="0 0 793 1121"><defs><clipPath id="1"><path id="" clip-rule="evenodd" transform="matrix(1 0 0 1 0 0)" d="M0 841L0 -0.9000244L0 -0.9000244L595.3 -0.9000244L595.3 -0.9000244L595.3 841L595.3 841L0 841z" /></clipPath><clipPath id="2"><path id="" clip-rule="evenodd" transform="matrix(1 0 0 1 0 0)" d="M0 -0.9000244L595.3 -0.9000244L595.3 -0.9000244L595.3 841L595.3 841L0 841z" /></clipPath></defs><g transform="matrix(1.333333 0 0 1.333333 0 0)"><g clip-path="url(#1)"><g clip-path="url(#2)"><g transform="matrix(0.2451219 0 0 0.2421687 289.95 778.9)"><g transform="matrix(1 0 0 1 0 0)"><image x="0" y="0" xlink:href="img_01.png" width="41" height="83" /></g></g><path id="72" transform="matrix(1 0 0 -1 0 841)" d="M194 699.7L299 699.7L299 699.7L299 674.35L299 674.35L194 674.35z" stroke="none" fill="#FFFF00" fill-rule="evenodd" /><path id="138" transform="matrix(1 0 0 -1 0 841)" d="M105 645.1L115.3 645.1L115.3 645.1L115.3 619.75L115.3 619.75L105 619.75z" stroke="none" fill="#FFFF00" fill-rule="evenodd" /><path id="139" transform="matrix(1 0 0 -1 0 841)" d="M115.3 645.1L127.3 645.1L127.3 645.1L127.3 619.75L127.3 619.75L115.3 619.75z" stroke="none" fill="#FFFF00" fill-rule="evenodd" /><path id="140" transform="matrix(1 0 0 -1 0 841)" d="M222.55 645.1L256.3 645.1L256.3 645.1L256.3 619.75L256.3 619.75L222.55 619.75z" stroke="none" fill="#FFFF00" fill-rule="evenodd" /><path id="141" transform="matrix(1 0 0 -1 0 841)" d="M256.3 645.1L282.55 645.1L282.55 645.1L282.55 619.75L282.55 619.75L256.3 619.75z" stroke="none" fill="#FFFF00" fill-rule="evenodd" /><path id="142" transform="matrix(1 0 0 -1 0 841)" d="M282.55 645.1L357.55 645.1L357.55 645.1L357.55 619.75L357.55 619.75L282.55 619.75z" stroke="none" fill="#FFFF00" fill-rule="evenodd" /><path id="175" transform="matrix(1 0 0 -1 0 841)" d="M159 613.9L172.65 613.9L172.65 613.9L172.65 588.55L172.65 588.55L159 588.55z" stroke="none" fill="#FFFF00" fill-rule="evenodd" /><path id="176" transform="matrix(1 0 0 -1 0 841)" d="M172.65 613.9L307.65 613.9L307.65 613.9L307.65 588.55L307.65 588.55L172.65 588.55z" stroke="none" fill="#FFFF00" fill-rule="evenodd" /><path id="177" transform="matrix(1 0 0 -1 0 841)" d="M307.65 613.9L321.3 613.9L321.3 613.9L321.3 588.55L321.3 588.55L307.65 588.55z" stroke="none" fill="#FFFF00" fill-rule="evenodd" /><path id="178" transform="matrix(1 0 0 -1 0 841)" d="M321.3 613.9L351.3 613.9L351.3 613.9L351.3 588.55L351.3 588.55L321.3 588.55z" stroke="none" fill="#FFFF00" fill-rule="evenodd" /><path id="179" transform="matrix(1 0 0 -1 0 841)" d="M351.3 613.9L364.95 613.9L364.95 613.9L364.95 588.55L364.95 588.55L351.3 588.55z" stroke="none" fill="#FFFF00" fill-rule="evenodd" /><path id="180" transform="matrix(1 0 0 -1 0 841)" d="M365 613.9L500 613.9L500 613.9L500 588.55L500 588.55L365 588.55z" stroke="none" fill="#FFFF00" fill-rule="evenodd" /><path id="210" transform="matrix(1 0 0 -1 0 841)" d="M90 582.7L120 582.7L120 582.7L120 557.35L120 557.35L90 557.35z" stroke="none" fill="#FFFF00" fill-rule="evenodd" /><path id="350" transform="matrix(1 0 0 -1 0 841)" d="M174 450.1L204 450.1L204 450.1L204 424.75L204 424.75L174 424.75z" stroke="none" fill="#FFFF00" fill-rule="evenodd" /><path id="554" transform="matrix(1 0 0 -1 0 841)" d="M220.65 301.9L370.65 301.9L370.65 301.9L370.65 276.55L370.65 276.55L220.65 276.55z" stroke="none" fill="#FFFF00" fill-rule="evenodd" /></g></g></g></svg>