<svg xmlns="http://www.w3.org/2000/svg" xmlns:xlink="http://www.w3.org/1999/xlink" id="body_1" preserveAspectRatio="xMinYMin meet" viewBox="0 0 793 1121"><defs><clipPath id="1"><path id="" clip-rule="evenodd" transform="matrix(1 0 0 1 0 0)" d="M0 841L0 -0.9000244L0 -0.9000244L595.3 -0.9000244L595.3 -0.9000244L595.3 841L595.3 841L0 841z" /></clipPath><clipPath id="2"><path id="" clip-rule="evenodd" transform="matrix(1 0 0 1 0 0)" d="M0 -0.9000244L595.3 -0.9000244L595.3 -0.9000244L595.3 841L595.3 841L0 841z" /></clipPath></defs><g transform="matrix(1.333333 0 0 1.333333 0 0)"><g clip-path="url(#1)"><g clip-path="url(#2)"><g transform="matrix(0.2451219 0 0 0.2421687 289.95 778.9)"><g transform="matrix(1 0 0 1 0 0)"><image x="0" y="0" xlink:href="img_01.png" width="41" height="83" /></g></g><path id="433" transform="matrix(1 0 0 -1 0 841)" d="M90 489.1L102.65 489.1L102.65 489.1L102.65 473.5L102.65 473.5L90 473.5z" stroke="none" fill="#FFFF00" fill-rule="evenodd" /><path id="434" transform="matrix(1 0 0 -1 0 841)" d="M102.65 489.1L390.65 489.1L390.65 489.1L390.65 473.5L390.65 473.5L102.65 473.5z" stroke="none" fill="#FFFF00" fill-rule="evenodd" /><path id="663" transform="matrix(1 0 0 -1 0 841)" d="M174.4 317.5L355.3 317.5L355.3 317.5L355.3 301.9L355.3 301.9L174.4 301.9z" stroke="none" fill="#FFFF00" fill-rule="evenodd" /><path id="782" transform="matrix(1 0 0 -1 0 841)" d="M440 255.1L500 255.1L500 255.1L500 239.5001L500 239.5001L440 239.5001z" stroke="none" fill="#FFFF00" fill-rule="evenodd" /><path id="818" transform="matrix(1 0 0 -1 0 841)" d="M90 239.5L258.8 239.5L258.8 239.5L258.8 223.9L258.8 223.9L90 223.9z" stroke="none" fill="#FFFF00" fill-rule="evenodd" /><path id="1053" transform="matrix(1 0 0 -1 0 841)" d="M111 132.7L496.2 132.7" stroke="#0000FF" stroke-width="0.6" fill="none" /><path id="1123" transform="matrix(1 0 0 -1 0 841)" d="M147 101.5L345.95 101.5" stroke="#0000FF" stroke-width="0.6" fill="none" /></g></g></g></svg>