<svg xmlns="http://www.w3.org/2000/svg" xmlns:xlink="http://www.w3.org/1999/xlink" id="body_1" preserveAspectRatio="xMinYMin meet" viewBox="0 0 793 1121"><defs><clipPath id="1"><path id="" clip-rule="evenodd" transform="matrix(1 0 0 1 0 0)" d="M0 841L0 -0.9000244L0 -0.9000244L595.3 -0.9000244L595.3 -0.9000244L595.3 841L595.3 841L0 841z" /></clipPath><clipPath id="2"><path id="" clip-rule="evenodd" transform="matrix(1 0 0 1 0 0)" d="M0 -0.9000244L595.3 -0.9000244L595.3 -0.9000244L595.3 841L595.3 841L0 841z" /></clipPath></defs><g transform="matrix(1.333333 0 0 1.333333 0 0)"><g clip-path="url(#1)"><g clip-path="url(#2)"><g transform="matrix(0.2451219 0 0 0.2421687 286.4 778.9)"><g transform="matrix(1 0 0 1 0 0)"><image x="0" y="0" xlink:href="img_01.png" width="41" height="83" /></g></g><path id="897" transform="matrix(1 0 0 -1 0 841)" d="M434.3 99.10004L485.3 99.10004L485.3 99.10004L485.3 79.60004L485.3 79.60004L434.3 79.60004z" stroke="none" fill="#FFFF00" fill-rule="evenodd" /><path id="898" transform="matrix(1 0 0 -1 0 841)" d="M485.3 99.10004L493.3 99.10004L493.3 99.10004L493.3 79.60004L493.3 79.60004L485.3 79.60004z" stroke="none" fill="#FFFF00" fill-rule="evenodd" /><path id="899" transform="matrix(1 0 0 -1 0 841)" d="M493.3 99.10004L499.95 99.10004L499.95 99.10004L499.95 79.60004L499.95 79.60004L493.3 79.60004z" stroke="none" fill="#FFFF00" fill-rule="evenodd" /></g></g></g></svg>