<svg xmlns="http://www.w3.org/2000/svg" xmlns:xlink="http://www.w3.org/1999/xlink" id="body_1" preserveAspectRatio="xMinYMin meet" viewBox="0 0 793 1121"><defs><clipPath id="1"><path id="" clip-rule="evenodd" transform="matrix(1 0 0 1 0 0)" d="M0 841L0 -0.9000244L0 -0.9000244L595.3 -0.9000244L595.3 -0.9000244L595.3 841L595.3 841L0 841z" /></clipPath><clipPath id="2"><path id="" clip-rule="evenodd" transform="matrix(1 0 0 1 0 0)" d="M0 -0.9000244L595.3 -0.9000244L595.3 -0.9000244L595.3 841L595.3 841L0 841z" /></clipPath></defs><g transform="matrix(1.333333 0 0 1.333333 0 0)"><g clip-path="url(#1)"><g clip-path="url(#2)"><g transform="matrix(0.2451219 0 0 0.2421687 289.95 778.9)"><g transform="matrix(1 0 0 1 0 0)"><image x="0" y="0" xlink:href="img_01.png" width="41" height="83" /></g></g><path id="48" transform="matrix(1 0 0 -1 0 841)" d="M231 725.5L359.25 725.5" stroke="#0000FF" stroke-width="0.6" fill="none" /><path id="218" transform="matrix(1 0 0 -1 0 841)" d="M90 616.3L458.4 616.3" stroke="#800080" stroke-width="0.6" fill="none" /><path id="279" transform="matrix(1 0 0 -1 0 841)" d="M317.35 567.1L329.75 567.1L329.75 567.1L329.75 538.5L329.75 538.5L317.35 538.5z" stroke="none" fill="#FFFF00" fill-rule="evenodd" /><path id="280" transform="matrix(1 0 0 -1 0 841)" d="M329.75 567.1L369.8 567.1L369.8 567.1L369.8 538.5L369.8 538.5L329.75 538.5z" stroke="none" fill="#FFFF00" fill-rule="evenodd" /><path id="281" transform="matrix(1 0 0 -1 0 841)" d="M369.8 567.1L379.85 567.1L379.85 567.1L379.85 538.5L379.85 538.5L369.8 538.5z" stroke="none" fill="#FFFF00" fill-rule="evenodd" /><path id="282" transform="matrix(1 0 0 -1 0 841)" d="M379.85 567.1L439.9 567.1L439.9 567.1L439.9 538.5L439.9 538.5L379.85 538.5z" stroke="none" fill="#FFFF00" fill-rule="evenodd" /><path id="283" transform="matrix(1 0 0 -1 0 841)" d="M439.9 567.1L449.95 567.1L449.95 567.1L449.95 538.5L449.95 538.5L439.9 538.5z" stroke="none" fill="#FFFF00" fill-rule="evenodd" /><path id="284" transform="matrix(1 0 0 -1 0 841)" d="M449.95 567.1L489.95 567.1L489.95 567.1L489.95 538.5L489.95 538.5L449.95 538.5z" stroke="none" fill="#FFFF00" fill-rule="evenodd" /><path id="285" transform="matrix(1 0 0 -1 0 841)" d="M489.95 567.1L500 567.1L500 567.1L500 538.5L500 538.5L489.95 538.5z" stroke="none" fill="#FFFF00" fill-rule="evenodd" /><g transform="matrix(0.4609501 0 0 0.461068 98.76 342.42)"><g transform="matrix(1 0 0 1 0 0)"><image x="0" y="0" xlink:href="img_02.png" width="863" height="412" /></g></g><g transform="matrix(0.2223169 0 0 0.2223126 166.44 571.02)"><g transform="matrix(1 0 0 1 0 0)"><image x="0" y="0" xlink:href="img_03.png" width="1174" height="787" /></g></g></g></g></g></svg>