<svg xmlns="http://www.w3.org/2000/svg" xmlns:xlink="http://www.w3.org/1999/xlink" id="body_1" preserveAspectRatio="xMinYMin meet" viewBox="0 0 793 1121"><defs><clipPath id="1"><path id="" clip-rule="evenodd" transform="matrix(1 0 0 1 0 0)" d="M0 841L0 -0.9000244L0 -0.9000244L595.3 -0.9000244L595.3 -0.9000244L595.3 841L595.3 841L0 841z" /></clipPath><clipPath id="2"><path id="" clip-rule="evenodd" transform="matrix(1 0 0 1 0 0)" d="M0 -0.9000244L595.3 -0.9000244L595.3 -0.9000244L595.3 841L595.3 841L0 841z" /></clipPath></defs><g transform="matrix(1.333333 0 0 1.333333 0 0)"><g clip-path="url(#1)"><g clip-path="url(#2)"><g transform="matrix(0.2451219 0 0 0.2421687 286.4 778.9)"><g transform="matrix(1 0 0 1 0 0)"><image x="0" y="0" xlink:href="img_01.png" width="41" height="83" /></g></g><path id="189" transform="matrix(1 0 0 -1 0 841)" d="M90 616.3L498 616.3" stroke="#800080" stroke-width="0.6" fill="none" /><path id="240" transform="matrix(1 0 0 -1 0 841)" d="M90 600.7L495.35 600.7" stroke="#800080" stroke-width="0.6" fill="none" /><path id="257" transform="matrix(1 0 0 -1 0 841)" d="M90 585.1L196.9 585.1" stroke="#800080" stroke-width="0.6" fill="none" /><path id="342" transform="matrix(1 0 0 -1 0 841)" d="M90 538.3L498 538.3" stroke="#0000FF" stroke-width="0.6" fill="none" /><path id="344" transform="matrix(1 0 0 -1 0 841)" d="M90 522.7L96 522.7" stroke="#0000FF" stroke-width="0.6" fill="none" /><path id="345" transform="matrix(1 0 0 -1 0 841)" d="M324 504.7L444.15 504.7L444.15 504.7L444.15 476.1L444.15 476.1L324 476.1z" stroke="none" fill="#FFFF00" fill-rule="evenodd" /><path id="364" transform="matrix(1 0 0 -1 0 841)" d="M389.35 457.9L405.05 457.9L405.05 457.9L405.05 442.3L405.05 442.3L389.35 442.3z" stroke="none" fill="#FFFF00" fill-rule="evenodd" /><path id="365" transform="matrix(1 0 0 -1 0 841)" d="M405.05 457.9L477.15 457.9L477.15 457.9L477.15 442.3L477.15 442.3L405.05 442.3z" stroke="none" fill="#FFFF00" fill-rule="evenodd" /><path id="470" transform="matrix(1 0 0 -1 0 841)" d="M90 429.1L498 429.1" stroke="#0000FF" stroke-width="0.6" fill="none" /><path id="521" transform="matrix(1 0 0 -1 0 841)" d="M90 413.5L495.35 413.5" stroke="#0000FF" stroke-width="0.6" fill="none" /><path id="538" transform="matrix(1 0 0 -1 0 841)" d="M90 397.9L196.9 397.9" stroke="#0000FF" stroke-width="0.6" fill="none" /><path id="539" transform="matrix(1 0 0 -1 0 841)" d="M222.9 379.9L294.95 379.9L294.95 379.9L294.95 364.3L294.95 364.3L222.9 364.3z" stroke="none" fill="#FFFF00" fill-rule="evenodd" /></g></g></g></svg>