<svg xmlns="http://www.w3.org/2000/svg" xmlns:xlink="http://www.w3.org/1999/xlink" id="body_1" preserveAspectRatio="xMinYMin meet" viewBox="0 0 793 1121"><defs><clipPath id="1"><path id="" clip-rule="evenodd" transform="matrix(1 0 0 1 0 0)" d="M0 841L0 -0.9000244L0 -0.9000244L595.3 -0.9000244L595.3 -0.9000244L595.3 841L595.3 841L0 841z" /></clipPath><clipPath id="2"><path id="" clip-rule="evenodd" transform="matrix(1 0 0 1 0 0)" d="M0 -0.9000244L595.3 -0.9000244L595.3 -0.9000244L595.3 841L595.3 841L0 841z" /></clipPath></defs><g transform="matrix(1.333333 0 0 1.333333 0 0)"><g clip-path="url(#1)"><g clip-path="url(#2)"><g transform="matrix(0.2451219 0 0 0.2421687 286.4 778.9)"><g transform="matrix(1 0 0 1 0 0)"><image x="0" y="0" xlink:href="img_01.png" width="41" height="83" /></g></g><path id="86" transform="matrix(1 0 0 -1 0 841)" d="M106 676.3L370 676.3L370 676.3L370 656.8L370 656.8L106 656.8z" stroke="none" fill="#FFFF00" fill-rule="evenodd" /><path id="125" transform="matrix(1 0 0 -1 0 841)" d="M107.1 629.5L311.1 629.5L311.1 629.5L311.1 610L311.1 610L107.1 610z" stroke="none" fill="#FFFF00" fill-rule="evenodd" /><path id="161" transform="matrix(1 0 0 -1 0 841)" d="M162 606.1L270 606.1L270 606.1L270 586.6L270 586.6L162 586.6z" stroke="none" fill="#FFFF00" fill-rule="evenodd" /><g transform="matrix(0.3271246 0 0 0.3273913 92.88 290.46)"><g transform="matrix(1 0 0 1 0 0)"><image x="0" y="0" xlink:href="img_02.png" width="1252" height="736" /></g></g></g></g></g></svg>