<svg xmlns="http://www.w3.org/2000/svg" xmlns:xlink="http://www.w3.org/1999/xlink" id="body_1" preserveAspectRatio="xMinYMin meet" viewBox="0 0 793 1121"><defs><clipPath id="1"><path id="" clip-rule="evenodd" transform="matrix(1 0 0 1 0 0)" d="M0 841L0 -0.9000244L0 -0.9000244L595.3 -0.9000244L595.3 -0.9000244L595.3 841L595.3 841L0 841z" /></clipPath><clipPath id="2"><path id="" clip-rule="evenodd" transform="matrix(1 0 0 1 0 0)" d="M0 -0.9000244L595.3 -0.9000244L595.3 -0.9000244L595.3 841L595.3 841L0 841z" /></clipPath></defs><g transform="matrix(1.333333 0 0 1.333333 0 0)"><g clip-path="url(#1)"><g clip-path="url(#2)"><g transform="matrix(0.2451219 0 0 0.2421687 286.4 778.9)"><g transform="matrix(1 0 0 1 0 0)"><image x="0" y="0" xlink:href="img_01.png" width="41" height="83" /></g></g><g transform="matrix(0.2782857 0 0 0.2782222 93.12 121.38)"><g transform="matrix(1 0 0 1 0 0)"><image x="0" y="0" xlink:href="img_02.png" width="1470" height="675" /></g></g><g transform="matrix(0.388062 0 0 0.3880597 147.48 417.18)"><g transform="matrix(1 0 0 1 0 0)"><image x="0" y="0" xlink:href="img_03.png" width="774" height="804" /></g></g><path id="4" transform="matrix(1 0 0 -1 0 841)" d="M90 769.9L402 769.9L402 769.9L402 754.3L402 754.3L90 754.3z" stroke="none" fill="#FFFF00" fill-rule="evenodd" /><path id="65" transform="matrix(1 0 0 -1 0 841)" d="M191.95 489.1L335.95 489.1L335.95 489.1L335.95 473.5L335.95 473.5L191.95 473.5z" stroke="none" fill="#FFFF00" fill-rule="evenodd" /><path id="66" transform="matrix(1 0 0 -1 0 841)" d="M335.95 489.1L347.3 489.1L347.3 489.1L347.3 473.5L347.3 473.5L335.95 473.5z" stroke="none" fill="#FFFF00" fill-rule="evenodd" /><path id="67" transform="matrix(1 0 0 -1 0 841)" d="M347.3 489.1L434.3 489.1L434.3 489.1L434.3 473.5L434.3 473.5L347.3 473.5z" stroke="none" fill="#FFFF00" fill-rule="evenodd" /><path id="68" transform="matrix(1 0 0 -1 0 841)" d="M434.3 489.1L451.95 489.1L451.95 489.1L451.95 473.5L451.95 473.5L434.3 473.5z" stroke="none" fill="#FFFF00" fill-rule="evenodd" /><path id="69" transform="matrix(1 0 0 -1 0 841)" d="M452 489.1L500 489.1L500 489.1L500 473.5L500 473.5L452 473.5z" stroke="none" fill="#FFFF00" fill-rule="evenodd" /><path id="106" transform="matrix(1 0 0 -1 0 841)" d="M90 473.5L129 473.5L129 473.5L129 457.9L129 457.9L90 457.9z" stroke="none" fill="#FFFF00" fill-rule="evenodd" /><path id="107" transform="matrix(1 0 0 -1 0 841)" d="M129 473.5L142 473.5L142 473.5L142 457.9L142 457.9L129 457.9z" stroke="none" fill="#FFFF00" fill-rule="evenodd" /><path id="108" transform="matrix(1 0 0 -1 0 841)" d="M142 473.5L229 473.5L229 473.5L229 457.9L229 457.9L142 457.9z" stroke="none" fill="#FFFF00" fill-rule="evenodd" /><path id="109" transform="matrix(1 0 0 -1 0 841)" d="M229 473.5L312.4 473.5L312.4 473.5L312.4 457.9L312.4 457.9L229 457.9z" stroke="none" fill="#FFFF00" fill-rule="evenodd" /><path id="110" transform="matrix(1 0 0 -1 0 841)" d="M312.4 473.5L324.15 473.5L324.15 473.5L324.15 457.9L324.15 457.9L312.4 457.9z" stroke="none" fill="#FFFF00" fill-rule="evenodd" /></g></g></g></svg>